<?xml version="1.0" standalone="no"?>
<!DOCTYPE svg PUBLIC "-//W3C//DTD SVG 20010904//EN"
 "http://www.w3.org/TR/2001/REC-SVG-20010904/DTD/svg10.dtd">
<svg version="1.0" xmlns="http://www.w3.org/2000/svg"
 width="640.000000pt" height="640.000000pt" viewBox="0 0 640.000000 640.000000"
 preserveAspectRatio="xMidYMid meet">
<metadata>
Created by potrace 1.11, written by Peter Selinger 2001-2013
</metadata>
<g transform="translate(0.000000,640.000000) scale(0.100000,-0.100000)"
fill="#000000" stroke="none">
<path d="M4890 5753 c-67 -26 -207 -102 -262 -143 -121 -89 -129 -123 -57
-258 47 -87 49 -93 33 -110 -27 -27 -84 -120 -115 -188 l-28 -62 -110 -4
c-108 -3 -110 -3 -139 -35 -38 -40 -47 -89 -46 -253 1 -196 12 -234 73 -268
28 -15 54 -20 116 -20 111 0 115 -1 115 -13 0 -22 72 -156 111 -207 l39 -53
-46 -81 c-27 -47 -47 -96 -49 -118 -3 -45 21 -90 62 -117 15 -10 37 -26 47
-35 11 -10 26 -18 33 -18 7 0 13 -4 13 -9 0 -13 198 -108 237 -114 32 -5 113
26 113 43 0 12 82 143 95 152 5 4 28 5 50 1 50 -8 156 -7 214 1 50 7 54 3 98
-83 29 -54 82 -110 108 -112 8 -1 21 -2 28 -3 24 -4 194 66 232 96 6 5 35 25
65 45 71 48 97 72 109 104 12 32 5 86 -16 118 -8 12 -28 48 -45 78 -30 54 -29
66 3 93 22 19 109 176 109 198 0 25 35 35 123 37 170 2 190 33 191 290 0 253
-22 285 -197 285 l-98 0 -30 66 c-27 62 -57 112 -109 182 l-22 29 50 86 c32
57 48 95 46 114 -1 15 -2 33 -3 40 -4 46 -197 181 -336 234 -96 37 -135 18
-210 -103 -33 -52 -57 -82 -66 -79 -27 7 -220 8 -259 1 l-38 -7 -48 84 c-27
46 -59 90 -71 98 -25 17 -91 27 -113 18z m459 -697 c59 -9 162 -60 195 -97
104 -117 125 -312 47 -440 -44 -72 -145 -150 -212 -165 -158 -34 -321 20 -391
128 -47 74 -59 112 -63 202 -4 82 18 175 54 219 68 86 151 139 243 156 44 8
50 8 127 -3z"/>
<path d="M2037 5454 c-1 -1 -36 -4 -77 -8 -41 -3 -86 -7 -100 -10 -14 -2 -44
-7 -67 -10 -87 -11 -176 -83 -200 -161 -6 -20 -12 -120 -13 -222 -1 -182 -3
-208 -19 -198 -5 2 -17 -2 -27 -10 -10 -8 -25 -15 -33 -15 -44 -1 -361 -187
-433 -255 -34 -31 -39 -31 -88 0 -22 14 -41 25 -44 25 -2 0 -33 17 -68 39 -78
47 -168 94 -188 99 -39 8 -118 2 -151 -12 -19 -8 -51 -30 -71 -48 -34 -32
-158 -185 -208 -258 -13 -19 -27 -37 -30 -40 -9 -9 -50 -69 -50 -74 0 -3 -20
-37 -45 -76 -25 -38 -42 -70 -39 -70 3 0 -3 -15 -14 -32 -30 -49 -62 -137 -68
-186 -8 -61 20 -141 63 -186 22 -23 97 -67 210 -123 l175 -88 -6 -45 c-4 -25
-9 -58 -12 -75 -3 -16 -7 -88 -8 -158 -2 -119 1 -163 18 -307 l7 -55 -163 -80
c-90 -44 -164 -83 -166 -87 -2 -5 -8 -8 -14 -8 -14 0 -64 -57 -85 -95 -21 -39
-25 -137 -7 -187 22 -64 90 -199 133 -266 23 -34 41 -65 41 -67 0 -3 7 -13 15
-22 8 -10 42 -56 76 -103 35 -47 65 -87 68 -90 3 -3 24 -27 46 -55 82 -104
121 -127 217 -131 69 -3 107 11 228 84 19 11 58 33 85 48 28 14 62 35 77 45
21 16 29 17 40 6 26 -25 198 -147 198 -141 0 4 8 0 18 -9 27 -25 126 -76 227
-118 l90 -38 5 -203 c5 -199 6 -204 32 -250 44 -74 106 -113 197 -124 24 -3
47 -7 50 -9 10 -6 204 -18 286 -18 202 0 399 24 460 55 45 24 81 60 106 109
21 41 23 57 23 241 l1 197 45 17 c149 56 381 191 474 276 11 10 25 18 32 18
10 0 96 -47 207 -114 160 -96 260 -102 353 -22 56 48 289 344 311 396 3 8 12
22 18 30 21 25 90 160 118 231 40 102 28 198 -35 272 -22 26 -200 127 -224
127 -7 0 -14 3 -16 8 -1 4 -38 24 -81 45 -43 20 -76 41 -74 45 3 4 8 32 12 62
21 162 20 356 -3 502 -5 32 -7 60 -4 63 3 2 80 41 171 86 158 77 241 135 241
166 0 7 4 13 9 13 19 0 30 112 16 175 -7 36 -115 259 -127 263 -4 2 -8 8 -8
13 0 9 -98 159 -110 169 -4 3 -11 12 -16 21 -14 24 -152 196 -189 235 -29 31
-100 56 -159 57 -69 1 -67 2 -332 -152 -39 -22 -75 -41 -81 -41 -5 0 -17 8
-27 19 -9 10 -49 40 -89 67 -39 27 -74 52 -77 55 -5 6 -181 103 -190 105 -5 1
-78 32 -134 57 l-30 14 -1 195 c-1 180 -3 198 -23 237 -41 77 -105 124 -187
136 -22 4 -51 8 -65 11 -73 13 -412 27 -423 18z m313 -1543 c87 -26 133 -46
198 -88 164 -105 283 -280 320 -473 8 -44 8 -245 -1 -284 -30 -138 -124 -322
-198 -387 -56 -51 -266 -157 -291 -148 -2 0 -16 -4 -31 -10 -61 -23 -204 -32
-302 -18 -220 32 -427 184 -533 393 -121 237 -94 530 73 782 51 78 101 116
258 194 129 64 364 82 507 39z"/>
<path d="M4890 2763 c-87 -33 -235 -116 -295 -165 -5 -5 -19 -16 -31 -26 -23
-18 -37 -53 -39 -92 -2 -23 26 -84 75 -166 20 -35 22 -30 -47 -134 -24 -35
-43 -69 -43 -75 0 -7 -7 -18 -15 -25 -8 -7 -13 -15 -11 -19 2 -3 -2 -17 -9
-31 -12 -23 -19 -25 -97 -27 -141 -3 -170 -17 -198 -88 -15 -38 -21 -269 -9
-353 16 -111 57 -140 200 -138 l87 1 43 -88 c24 -48 49 -93 56 -99 7 -6 13
-17 13 -24 0 -8 3 -14 8 -14 4 0 15 -12 25 -25 17 -24 17 -26 -29 -106 -79
-141 -69 -181 72 -277 139 -94 264 -146 316 -131 44 12 62 32 114 121 l45 79
37 -6 c50 -8 182 -8 236 0 l43 7 45 -79 c76 -130 114 -148 220 -104 88 36 173
84 241 135 69 52 88 76 91 119 3 38 -5 61 -56 146 l-38 64 58 91 c32 50 67
111 77 136 11 25 23 48 28 51 4 3 45 5 90 3 63 -1 91 3 123 17 66 31 79 79 78
289 -1 235 -27 270 -202 273 -50 1 -92 4 -95 7 -2 3 -20 39 -40 80 -20 41 -54
99 -76 128 -35 47 -39 57 -30 80 6 15 16 34 23 42 24 28 58 104 61 135 5 58
-33 103 -150 177 -96 61 -202 110 -250 115 -48 5 -99 -23 -118 -64 -6 -16 -16
-33 -22 -39 -6 -6 -19 -29 -30 -51 l-20 -41 -135 3 c-74 1 -145 -1 -157 -6
-25 -9 -34 -1 -90 96 -53 91 -108 122 -173 98z m500 -704 c58 -19 143 -70 169
-101 47 -59 75 -145 75 -238 1 -79 -18 -159 -45 -195 -96 -123 -191 -174 -319
-169 -102 3 -235 60 -268 115 -66 106 -82 158 -78 258 3 96 36 173 103 239 96
95 237 130 363 91z"/>
</g>
</svg>
